<?xml version="1.0"?>

<svg xmlns="http://www.w3.org/2000/svg" viewBox="0 0 1024 1024" width="1024" height="1024" shape-rendering="geometricPrecision">
  <g fill="currentColor">
    <path d="M 512 348 C 502 318, 460 264, 408 264 C 304 274, 196 336, 168 428 C 144 516, 184 612, 224 690 C 268 774, 344 844, 432 884 C 472 904, 502 858, 512 832 C 522 858, 552 904, 592 884 C 680 844, 756 774, 800 690 C 840 612, 880 516, 856 428 C 828 336, 720 274, 616 264 C 564 264, 522 318, 512 348 Z"></path>
    <path d="M 504 344 C 502 290, 506 232, 518 174 C 528 134, 548 98, 572 102 C 588 106, 592 122, 582 130 C 568 134, 554 146, 548 162 C 540 204, 530 282, 520 334 C 518 342, 510 346, 504 344 Z"></path>
    <path d="M 544 225 C 596 153, 682 111, 770 131 C 786 139, 790 165, 776 185 C 748 227, 686 245, 612 241 C 580 239, 560 233, 544 225 Z"></path>
  </g>
</svg>